<svg xmlns:xlink="http://www.w3.org/1999/xlink" xmlns="http://www.w3.org/2000/svg" width="80" height="57" viewBox="0 0 80 57" fill="none"><g clip-path="url(#clip0_89_39)" fill="none"><rect x="1.83337" y="5.86499" width="79" height="55" rx="15" fill="#33DB4A" fill-opacity="0.15"></rect><path d="M30.3334 45.99C25.6735 45.99 22.8334 42.2124 22.8334 37.5525C22.8334 32.8926 26.611 29.115 31.2709 29.115H32.2084V27.24C32.2084 22.0623 36.4057 17.865 41.5834 17.865C46.761 17.865 50.9584 22.0623 50.9584 27.24V29.115H51.8959C56.5558 29.115 60.3334 32.8926 60.3334 37.5525C60.3334 42.2124 57.4933 45.99 52.8334 45.99" stroke="#33DB4A" stroke-width="2.5px" stroke-linecap="round" stroke-linejoin="round" fill="none"></path><path d="M35.9584 47.0317V39.3233C35.9584 38.8631 36.3315 38.49 36.7917 38.49H46.375C46.8353 38.49 47.2084 38.8631 47.2084 39.3233V47.0317C47.2084 47.4919 46.8353 47.865 46.375 47.865H36.7917C36.3315 47.865 35.9584 47.4919 35.9584 47.0317Z" stroke="#33DB4A" stroke-width="2.5px" stroke-linecap="round" stroke-linejoin="round" fill="none"></path><path d="M37.8334 38.49V36.615C37.8334 34.5439 39.5123 32.865 41.5834 32.865V32.865C43.6544 32.865 45.3334 34.5439 45.3334 36.615V38.49" stroke="#33DB4A" stroke-width="2.5px" stroke-linecap="round" stroke-linejoin="round" fill="none"></path></g><defs><clipPath id="clip0_89_39"><rect x="0.833374" y="0.86499" width="79" height="56" rx="15" fill="white"></rect></clipPath></defs></svg>