<svg xmlns:xlink="http://www.w3.org/1999/xlink" xmlns="http://www.w3.org/2000/svg" width="80" height="57" viewBox="0 0 80 57" fill="none"><g clip-path="url(#clip0_89_4)" fill="none"><rect x="0.5" y="4.86499" width="79" height="52" rx="15" fill="#33DB4A" fill-opacity="0.15"></rect><path d="M49.2456 44.5331H42.1602C41.8343 44.5331 41.5699 44.2908 41.5699 43.9923V35.2109H36.2009V43.9921C36.2009 44.2905 35.9364 44.5328 35.6105 44.5328H28.5254C28.1995 44.5328 27.9351 44.2905 27.9351 43.9921V30.2356C27.9351 30.0945 27.9953 29.959 28.1027 29.8582L38.4915 20.1029C38.6024 19.9985 38.7551 19.9396 38.9142 19.9396H38.915C39.0744 19.9396 39.227 19.999 39.338 20.1037L49.6695 29.8587C49.7764 29.9596 49.836 30.0947 49.836 30.2353V43.9921C49.836 44.2908 49.5715 44.5331 49.2456 44.5331ZM42.7506 43.4516H48.6553V30.4546L38.913 21.256L29.1158 30.4557V43.4513H35.0205V34.6701C35.0205 34.3717 35.285 34.1294 35.6108 34.1294H42.1602C42.4861 34.1294 42.7506 34.3717 42.7506 34.6701V43.4516Z" fill="#33DB4A"></path><path d="M25.2715 30.7157C25.1239 30.7157 24.9763 30.6654 24.8617 30.5643C24.6271 30.3572 24.62 30.0146 24.8461 29.7997L38.4378 16.8779C38.5485 16.7724 38.7014 16.7129 38.8608 16.7124C39.0352 16.7116 39.1734 16.7705 39.2853 16.8752L52.8457 29.5799C53.0735 29.7935 53.0694 30.1358 52.8365 30.3445C52.603 30.5532 52.2293 30.5491 52.0018 30.3358L38.8664 18.0296L25.6965 30.55C25.5808 30.6603 25.4261 30.7157 25.2715 30.7157Z" fill="#33DB4A"></path><path d="M30.6912 25.563C30.3653 25.563 30.1008 25.3207 30.1008 25.0222V18.8566C30.1008 18.5581 30.3653 18.3158 30.6912 18.3158C31.0171 18.3158 31.2815 18.5581 31.2815 18.8566V25.0222C31.2815 25.3207 31.0174 25.563 30.6912 25.563Z" fill="#33DB4A"></path></g><defs><clipPath id="clip0_89_4"><rect x="0.5" y="0.86499" width="79" height="56" rx="15" fill="white"></rect></clipPath></defs></svg>