<svg xmlns:xlink="http://www.w3.org/1999/xlink" xmlns="http://www.w3.org/2000/svg" width="80" height="57" viewBox="0 0 80 57" fill="none"><g clip-path="url(#clip0_89_80)" fill="none"><rect x="-0.633118" y="4.86499" width="114.133" height="87.1903" rx="15" fill="#33DB4A" fill-opacity="0.15"></rect><path d="M38.5715 43.2582C34.9585 43.2582 31.5629 41.9699 29.0087 39.6296C24.8335 35.8062 23.8414 30.0079 26.5414 25.2033C26.7859 24.7688 27.3674 24.598 27.8427 24.821C28.318 25.044 28.5044 25.5775 28.26 26.0129C25.9454 30.1309 26.7955 35.1001 30.3747 38.3784C32.5637 40.3843 35.4744 41.4886 38.5715 41.4886C41.6676 41.4886 44.5792 40.3843 46.7682 38.3784C48.9573 36.3725 50.1638 33.7065 50.1638 30.8706C50.1638 28.0338 48.9582 25.3678 46.7682 23.3628C44.5782 21.3578 41.6686 20.2526 38.5715 20.2526C35.4744 20.2526 32.5637 21.3578 30.3747 23.3628C29.9969 23.7088 29.3864 23.7088 29.0087 23.3628C28.631 23.0168 28.631 22.4576 29.0087 22.1117C31.5629 19.7722 34.9585 18.483 38.5715 18.483C42.1844 18.483 45.581 19.7722 48.1342 22.1117C50.6894 24.4512 52.0959 27.5613 52.0959 30.8706C52.0959 34.179 50.6894 37.2901 48.1342 39.6296C45.581 41.9699 42.1844 43.2582 38.5715 43.2582Z" fill="#33DB4A"></path><path d="M43.4006 35.2948C43.1891 35.2948 42.9765 35.2319 42.7978 35.101L37.9677 31.5617C37.7387 31.3935 37.6054 31.1396 37.6054 30.8706V23.792C37.6054 23.3035 38.0382 22.9071 38.5714 22.9071C39.1047 22.9071 39.5375 23.3035 39.5375 23.792V30.4459L44.0054 33.7189C44.4217 34.025 44.4894 34.5816 44.1561 34.963C43.9648 35.1806 43.6847 35.2948 43.4006 35.2948Z" fill="#33DB4A"></path></g><defs><clipPath id="clip0_89_80"><rect x="0.166687" y="0.86499" width="79" height="56" rx="15" fill="white"></rect></clipPath></defs></svg>